# xmcd
#
# Track frame offsets: 
#        150
#        21556
#        42642
#        66513
#        85243
#        107951
#        126085
#        144481
#        164896
#        179964
#        199793
#        220931
#        243414
#        262735
#        279087
#        297207
#        318278
#        340157
#
# Disc length: 4676 seconds
#
# Revision: 1
# Processed by: cddbd v1.5.2PL0 Copyright (c) Steve Scherf et al.
# Submitted via: ExactAudioCopy v1.0b1
#
DISCID=23124212
DTITLE=Various Artist - Geniesser Lounge - Shamrock Tasting - CD 1
DYEAR=2010
DGENRE=Pop
TTITLE0=Sinéad O'connor - Three Babies
TTITLE1=Christy Moore - Mullaghmore
TTITLE2=Aine Minogue - The Butterfly
TTITLE3=Jim McCann - A Song For Ireland
TTITLE4=Nightnoise - The March Air
TTITLE5=Corún - March Of The Settlers
TTITLE6=Finbar Wright - Will Ye Go, Lassie Go
TTITLE7=Donal Lunny - Declan
TTITLE8=Whirligig - The Suidh
TTITLE9=Craobh Rua - The Belfast Mountains
TTITLE10=Cherish The Ladies - The Ballad Of The Foxhunter
TTITLE11=Brian Kennedy - Carrickfergus
TTITLE12=Canterach - Johnny O'Braidislea
TTITLE13=Green - Found On The Wave
TTITLE14=Clannad - Anam
TTITLE15=Tannas - Mairead Nan Cuiread
TTITLE16=Drop The Box - The Mushroom House
TTITLE17=Sean Needham - Refugee
EXTD=
EXTT0=
EXTT1=
EXTT2=
EXTT3=
EXTT4=
EXTT5=
EXTT6=
EXTT7=
EXTT8=
EXTT9=
EXTT10=
EXTT11=
EXTT12=
EXTT13=
EXTT14=
EXTT15=
EXTT16=
EXTT17=
PLAYORDER=
